<?xml version="1.0" encoding="UTF-8"?>
<svg xmlns="http://www.w3.org/2000/svg" xmlns:xlink="http://www.w3.org/1999/xlink" width="250pt" height="181pt" viewBox="0 0 250 181" version="1.1">
<defs>
<filter id="alpha" filterUnits="objectBoundingBox" x="0%" y="0%" width="100%" height="100%">
  <feColorMatrix type="matrix" in="SourceGraphic" values="0 0 0 0 1 0 0 0 0 1 0 0 0 0 1 0 0 0 1 0"/>
</filter>
<mask id="mask0">
  <g filter="url(#alpha)">
<rect x="0" y="0" width="250" height="181" style="fill:rgb(0%,0%,0%);fill-opacity:0.101961;stroke:none;"/>
  </g>
</mask>
<clipPath id="clip1">
  <rect x="0" y="0" width="250" height="181"/>
</clipPath>
<g id="surface5" clip-path="url(#clip1)">
<path style=" stroke:none;fill-rule:nonzero;fill:rgb(0%,0%,0%);fill-opacity:1;" d="M 159.335938 136.179688 C 159.335938 134.058594 150.769531 132.339844 140.203125 132.339844 C 129.636719 132.339844 121.074219 134.058594 121.074219 136.179688 C 121.074219 138.296875 129.636719 140.015625 140.203125 140.015625 C 150.769531 140.015625 159.335938 138.296875 159.335938 136.179688 Z M 159.335938 136.179688 "/>
</g>
<mask id="mask1">
  <g filter="url(#alpha)">
<rect x="0" y="0" width="250" height="181" style="fill:rgb(0%,0%,0%);fill-opacity:0.2;stroke:none;"/>
  </g>
</mask>
<clipPath id="clip2">
  <rect x="0" y="0" width="250" height="181"/>
</clipPath>
<g id="surface8" clip-path="url(#clip2)">
<path style=" stroke:none;fill-rule:nonzero;fill:rgb(0%,0%,0%);fill-opacity:1;" d="M 106.761719 34.902344 L 106.761719 74.476562 C 105.789062 73.769531 104.851562 73.011719 103.957031 72.207031 L 103.957031 37.207031 C 104.851562 36.394531 105.789062 35.625 106.761719 34.902344 Z M 106.761719 34.902344 "/>
</g>
<mask id="mask2">
  <g filter="url(#alpha)">
<rect x="0" y="0" width="250" height="181" style="fill:rgb(0%,0%,0%);fill-opacity:0.2;stroke:none;"/>
  </g>
</mask>
<clipPath id="clip3">
  <rect x="0" y="0" width="250" height="181"/>
</clipPath>
<g id="surface11" clip-path="url(#clip3)">
<path style=" stroke:none;fill-rule:nonzero;fill:rgb(0%,0%,0%);fill-opacity:1;" d="M 113.863281 30.648438 L 113.863281 78.652344 C 112.898438 78.203125 111.960938 77.722656 111.058594 77.21875 L 111.058594 32.113281 C 111.960938 31.601562 112.898438 31.113281 113.863281 30.648438 Z M 113.863281 30.648438 "/>
</g>
<mask id="mask3">
  <g filter="url(#alpha)">
<rect x="0" y="0" width="250" height="181" style="fill:rgb(0%,0%,0%);fill-opacity:0.2;stroke:none;"/>
  </g>
</mask>
<clipPath id="clip4">
  <rect x="0" y="0" width="250" height="181"/>
</clipPath>
<g id="surface14" clip-path="url(#clip4)">
<path style=" stroke:none;fill-rule:nonzero;fill:rgb(0%,0%,0%);fill-opacity:1;" d="M 120.964844 27.863281 L 120.964844 81.355469 C 120.011719 81.070312 119.074219 80.761719 118.160156 80.433594 L 118.160156 28.820312 C 119.074219 28.480469 120.007812 28.160156 120.964844 27.863281 Z M 120.964844 27.863281 "/>
</g>
<mask id="mask4">
  <g filter="url(#alpha)">
<rect x="0" y="0" width="250" height="181" style="fill:rgb(0%,0%,0%);fill-opacity:0.2;stroke:none;"/>
  </g>
</mask>
<clipPath id="clip5">
  <rect x="0" y="0" width="250" height="181"/>
</clipPath>
<g id="surface17" clip-path="url(#clip5)">
<path style=" stroke:none;fill-rule:nonzero;fill:rgb(0%,0%,0%);fill-opacity:1;" d="M 128.066406 26.132812 L 128.066406 83.007812 C 127.117188 82.847656 126.183594 82.667969 125.261719 82.46875 L 125.261719 26.707031 C 126.183594 26.496094 127.117188 26.304688 128.066406 26.132812 Z M 128.066406 26.132812 "/>
</g>
<mask id="mask5">
  <g filter="url(#alpha)">
<rect x="0" y="0" width="250" height="181" style="fill:rgb(0%,0%,0%);fill-opacity:0.2;stroke:none;"/>
  </g>
</mask>
<clipPath id="clip6">
  <rect x="0" y="0" width="250" height="181"/>
</clipPath>
<g id="surface20" clip-path="url(#clip6)">
<path style=" stroke:none;fill-rule:nonzero;fill:rgb(0%,0%,0%);fill-opacity:1;" d="M 135.167969 25.273438 L 135.167969 83.792969 C 134.222656 83.742188 133.289062 83.671875 132.363281 83.578125 L 132.363281 25.515625 C 133.289062 25.414062 134.222656 25.335938 135.167969 25.273438 Z M 135.167969 25.273438 "/>
</g>
<mask id="mask6">
  <g filter="url(#alpha)">
<rect x="0" y="0" width="250" height="181" style="fill:rgb(0%,0%,0%);fill-opacity:0.2;stroke:none;"/>
  </g>
</mask>
<clipPath id="clip7">
  <rect x="0" y="0" width="250" height="181"/>
</clipPath>
<g id="surface23" clip-path="url(#clip7)">
<path style=" stroke:none;fill-rule:nonzero;fill:rgb(0%,0%,0%);fill-opacity:1;" d="M 142.269531 25.199219 L 142.269531 83.785156 C 141.34375 83.835938 140.40625 83.867188 139.464844 83.878906 L 139.464844 25.136719 C 140.40625 25.136719 141.339844 25.15625 142.269531 25.199219 Z M 142.269531 25.199219 "/>
</g>
<mask id="mask7">
  <g filter="url(#alpha)">
<rect x="0" y="0" width="250" height="181" style="fill:rgb(0%,0%,0%);fill-opacity:0.2;stroke:none;"/>
  </g>
</mask>
<clipPath id="clip8">
  <rect x="0" y="0" width="250" height="181"/>
</clipPath>
<g id="surface26" clip-path="url(#clip8)">
<path style=" stroke:none;fill-rule:nonzero;fill:rgb(0%,0%,0%);fill-opacity:1;" d="M 149.371094 25.90625 L 149.371094 83 C 148.445312 83.15625 147.511719 83.292969 146.566406 83.40625 L 146.566406 25.527344 C 147.511719 25.632812 148.445312 25.757812 149.371094 25.90625 Z M 149.371094 25.90625 "/>
</g>
<mask id="mask8">
  <g filter="url(#alpha)">
<rect x="0" y="0" width="250" height="181" style="fill:rgb(0%,0%,0%);fill-opacity:0.2;stroke:none;"/>
  </g>
</mask>
<clipPath id="clip9">
  <rect x="0" y="0" width="250" height="181"/>
</clipPath>
<g id="surface29" clip-path="url(#clip9)">
<path style=" stroke:none;fill-rule:nonzero;fill:rgb(0%,0%,0%);fill-opacity:1;" d="M 156.472656 27.472656 L 156.472656 81.355469 C 155.554688 81.628906 154.617188 81.882812 153.667969 82.113281 L 153.667969 26.742188 C 154.617188 26.964844 155.554688 27.207031 156.472656 27.472656 Z M 156.472656 27.472656 "/>
</g>
<mask id="mask9">
  <g filter="url(#alpha)">
<rect x="0" y="0" width="250" height="181" style="fill:rgb(0%,0%,0%);fill-opacity:0.2;stroke:none;"/>
  </g>
</mask>
<clipPath id="clip10">
  <rect x="0" y="0" width="250" height="181"/>
</clipPath>
<g id="surface32" clip-path="url(#clip10)">
<path style=" stroke:none;fill-rule:nonzero;fill:rgb(0%,0%,0%);fill-opacity:1;" d="M 163.574219 30.066406 L 163.574219 78.683594 C 162.664062 79.105469 161.730469 79.5 160.769531 79.875 L 160.769531 28.902344 C 161.726562 29.265625 162.664062 29.652344 163.574219 30.066406 Z M 163.574219 30.066406 "/>
</g>
<mask id="mask10">
  <g filter="url(#alpha)">
<rect x="0" y="0" width="250" height="181" style="fill:rgb(0%,0%,0%);fill-opacity:0.2;stroke:none;"/>
  </g>
</mask>
<clipPath id="clip11">
  <rect x="0" y="0" width="250" height="181"/>
</clipPath>
<g id="surface35" clip-path="url(#clip11)">
<path style=" stroke:none;fill-rule:nonzero;fill:rgb(0%,0%,0%);fill-opacity:1;" d="M 170.675781 34.074219 L 170.675781 74.589844 C 169.78125 75.230469 168.847656 75.835938 167.871094 76.417969 L 167.871094 32.28125 C 168.847656 32.847656 169.78125 33.449219 170.675781 34.074219 Z M 170.675781 34.074219 "/>
</g>
<mask id="mask11">
  <g filter="url(#alpha)">
<rect x="0" y="0" width="250" height="181" style="fill:rgb(0%,0%,0%);fill-opacity:0.2;stroke:none;"/>
  </g>
</mask>
<clipPath id="clip12">
  <rect x="0" y="0" width="250" height="181"/>
</clipPath>
<g id="surface38" clip-path="url(#clip12)">
<path style=" stroke:none;fill-rule:nonzero;fill:rgb(0%,0%,0%);fill-opacity:1;" d="M 177.777344 40.695312 L 177.777344 67.890625 C 176.917969 68.996094 175.980469 70.042969 174.972656 71.019531 L 174.972656 37.597656 C 175.980469 38.5625 176.917969 39.597656 177.777344 40.695312 Z M 177.777344 40.695312 "/>
</g>
</defs>
<g id="surface1">
<path style=" stroke:none;fill-rule:nonzero;fill:rgb(24.705882%,23.921569%,33.72549%);fill-opacity:1;" d="M 40.675781 181 L 40.476562 181 C 30.042969 181 20.144531 180.480469 12.597656 179.535156 L 12.292969 179.496094 C 12.085938 179.46875 11.882812 179.441406 11.679688 179.414062 C 10.496094 179.257812 9.335938 179.082031 8.234375 178.890625 C 2.769531 177.9375 0 176.800781 0 175.511719 C 0 174.441406 1.816406 173.511719 5.554688 172.664062 C 7.355469 172.253906 9.574219 171.878906 12.15625 171.546875 C 12.625 171.484375 13.109375 171.425781 13.605469 171.367188 C 20.996094 170.5 30.539062 170.023438 40.476562 170.023438 C 42.441406 170.023438 44.425781 170.042969 46.382812 170.078125 C 63.03125 170.398438 80.953125 172.234375 80.953125 175.511719 C 80.953125 177.46875 74.472656 178.730469 69.039062 179.445312 C 61.472656 180.441406 51.398438 180.992188 40.675781 181 Z M 40.476562 170.457031 C 30.558594 170.457031 21.03125 170.933594 13.65625 171.800781 C 13.164062 171.855469 12.679688 171.914062 12.210938 171.976562 C 9.644531 172.308594 7.4375 172.679688 5.652344 173.085938 C 0.941406 174.152344 0.433594 175.136719 0.433594 175.511719 C 0.433594 175.984375 1.199219 177.222656 8.308594 178.464844 C 9.40625 178.652344 10.558594 178.828125 11.738281 178.984375 C 11.941406 179.011719 12.144531 179.039062 12.347656 179.066406 L 12.652344 179.105469 C 20.179688 180.046875 30.0625 180.566406 40.476562 180.566406 L 40.675781 180.566406 C 64.511719 180.550781 80.519531 177.9375 80.519531 175.511719 C 80.519531 173.375 67.746094 170.921875 46.375 170.511719 C 44.421875 170.476562 42.4375 170.457031 40.476562 170.457031 Z M 40.476562 170.457031 "/>
<path style=" stroke:none;fill-rule:nonzero;fill:rgb(24.705882%,23.921569%,33.72549%);fill-opacity:1;" d="M 67.855469 175.511719 C 67.855469 178.414062 57.308594 180.769531 44.273438 180.78125 L 44.15625 180.78125 C 37.792969 180.78125 32.015625 180.226562 27.757812 179.320312 C 27.578125 179.277344 27.398438 179.238281 27.222656 179.199219 C 26.496094 179.035156 25.820312 178.859375 25.199219 178.679688 C 22.21875 177.792969 20.453125 176.699219 20.453125 175.511719 C 20.453125 174.550781 21.609375 173.652344 23.625 172.875 C 24.886719 172.40625 26.183594 172.035156 27.5 171.761719 C 27.777344 171.699219 28.0625 171.640625 28.351562 171.582031 C 32.542969 170.746094 38.082031 170.238281 44.15625 170.238281 C 45.335938 170.238281 46.496094 170.257812 47.628906 170.296875 C 59.074219 170.667969 67.855469 172.863281 67.855469 175.511719 Z M 67.855469 175.511719 "/>
<path style=" stroke:none;fill-rule:nonzero;fill:rgb(62.745098%,38.039216%,41.568627%);fill-opacity:1;" d="M 32.234375 127.742188 L 33.246094 135.652344 C 33.246094 135.652344 33.652344 138.289062 34.054688 139.710938 C 34.054688 139.710938 33.652344 147.214844 36.890625 152.492188 L 38.910156 156.34375 L 39.316406 162.023438 L 44.375 162.632812 L 43.363281 154.113281 C 43.363281 154.113281 42.957031 150.054688 43.363281 148.433594 C 43.765625 146.8125 41.339844 139.304688 41.339844 139.304688 C 41.339844 139.304688 44.578125 128.757812 42.148438 126.121094 C 39.722656 123.484375 32.234375 127.742188 32.234375 127.742188 Z M 32.234375 127.742188 "/>
<path style=" stroke:none;fill-rule:nonzero;fill:rgb(18.431373%,18.039216%,25.490196%);fill-opacity:1;" d="M 41.136719 160.402344 C 41.136719 160.402344 38.910156 160.402344 38.710938 161.011719 C 38.507812 161.617188 35.269531 167.097656 35.269531 167.097656 C 35.269531 167.097656 32.4375 171.558594 36.484375 171.761719 C 40.53125 171.964844 41.746094 170.140625 41.746094 170.140625 C 41.746094 170.140625 45.386719 164.257812 45.589844 163.242188 C 45.789062 162.226562 44.066406 160.054688 44.066406 160.054688 C 44.066406 160.054688 41.746094 161.617188 41.136719 160.402344 Z M 41.136719 160.402344 "/>
<path style=" stroke:none;fill-rule:nonzero;fill:rgb(62.745098%,38.039216%,41.568627%);fill-opacity:1;" d="M 50.847656 54.105469 C 50.847656 57.914062 47.769531 61.003906 43.96875 61.003906 C 40.171875 61.003906 37.089844 57.914062 37.089844 54.105469 C 37.089844 50.296875 40.171875 47.210938 43.96875 47.210938 C 47.769531 47.210938 50.847656 50.296875 50.847656 54.105469 Z M 50.847656 54.105469 "/>
<path style=" stroke:none;fill-rule:nonzero;fill:rgb(62.745098%,38.039216%,41.568627%);fill-opacity:1;" d="M 38.40625 56.238281 C 38.40625 56.238281 38.40625 63.742188 35.777344 64.351562 C 33.144531 64.960938 39.417969 71.855469 42.855469 71.046875 C 46.296875 70.234375 47.710938 64.757812 47.710938 64.757812 C 47.710938 64.757812 44.679688 60.902344 45.890625 58.875 C 47.105469 56.84375 38.40625 56.238281 38.40625 56.238281 Z M 38.40625 56.238281 "/>
<path style=" stroke:none;fill-rule:nonzero;fill:rgb(81.568627%,80.392157%,88.235294%);fill-opacity:1;" d="M 41.339844 66.683594 C 39.378906 66.621094 37.570312 65.613281 36.484375 63.976562 C 36.484375 63.976562 33.652344 64.453125 33.246094 64.65625 C 32.84375 64.859375 25.761719 67.089844 24.144531 71.753906 L 30.617188 80.070312 C 30.617188 80.070312 29.199219 91.835938 30.617188 97.113281 C 31.460938 100.269531 31.246094 103.621094 30.011719 106.644531 C 30.011719 106.644531 29.402344 106.847656 30.414062 107.253906 C 31.425781 107.660156 54.691406 102.996094 55.097656 101.777344 C 55.5 100.558594 54.691406 100.558594 55.300781 99.953125 C 55.90625 99.34375 57.523438 95.691406 55.90625 94.472656 C 54.289062 93.257812 53.277344 79.871094 53.277344 79.871094 L 57.523438 69.117188 C 57.523438 69.117188 49.761719 62.894531 46.964844 63.675781 C 46.964844 63.675781 46.398438 66.683594 41.339844 66.683594 Z M 41.339844 66.683594 "/>
<path style=" stroke:none;fill-rule:nonzero;fill:rgb(62.745098%,38.039216%,41.568627%);fill-opacity:1;" d="M 43.96875 123.683594 C 43.96875 123.683594 43.566406 132.609375 44.375 136.058594 C 45.183594 139.507812 45.183594 140.929688 45.183594 140.929688 C 45.183594 140.929688 43.96875 146.8125 44.578125 152.289062 C 45.183594 157.765625 43.867188 166.59375 43.867188 166.59375 L 48.824219 168.109375 L 51.859375 152.695312 C 51.859375 152.695312 54.289062 143.160156 52.871094 138.695312 C 52.871094 138.695312 53.679688 125.105469 54.289062 123.683594 C 54.894531 122.265625 43.96875 123.683594 43.96875 123.683594 Z M 43.96875 123.683594 "/>
<path style=" stroke:none;fill-rule:nonzero;fill:rgb(18.431373%,18.039216%,25.490196%);fill-opacity:1;" d="M 38.542969 55.335938 C 38.632812 54.6875 38.824219 53.984375 39.375 53.632812 C 39.945312 53.269531 40.683594 53.417969 41.359375 53.46875 C 42.03125 53.515625 42.859375 53.347656 43.082031 52.707031 C 43.21875 52.308594 43.070312 51.828125 43.285156 51.464844 C 43.628906 50.886719 44.675781 50.953125 44.859375 50.304688 C 44.914062 50.101562 44.859375 49.871094 44.941406 49.675781 C 45.054688 49.410156 45.367188 49.304688 45.648438 49.238281 C 46.667969 49.003906 47.71875 48.910156 48.765625 48.964844 C 48.867188 48.984375 48.972656 48.960938 49.0625 48.90625 C 49.105469 48.859375 49.140625 48.800781 49.15625 48.738281 C 49.394531 48.027344 49.140625 47.222656 48.671875 46.640625 C 48.171875 46.082031 47.554688 45.640625 46.863281 45.347656 C 45.335938 44.601562 43.679688 44.160156 41.984375 44.046875 C 40.695312 43.964844 39.339844 44.105469 38.238281 44.789062 C 37.914062 44.996094 37.613281 45.238281 37.339844 45.507812 C 36.140625 46.710938 35.363281 48.265625 35.113281 49.945312 C 34.871094 51.621094 35.058594 53.332031 35.65625 54.914062 C 36.007812 55.867188 36.558594 56.851562 37.410156 57.4375 C 37.867188 57.753906 38.261719 58.042969 38.449219 57.511719 C 38.652344 56.941406 38.453125 55.964844 38.542969 55.335938 Z M 38.542969 55.335938 "/>
<path style=" stroke:none;fill-rule:nonzero;fill:rgb(18.431373%,18.039216%,25.490196%);fill-opacity:1;" d="M 31.023438 105.429688 C 31.023438 105.429688 27.988281 109.484375 28.59375 112.324219 C 29.199219 115.164062 31.425781 119.832031 31.425781 119.832031 C 31.425781 119.832031 30.210938 128.960938 32.234375 128.960938 C 34.257812 128.960938 42.957031 128.554688 43.160156 127.539062 C 43.363281 126.527344 42.554688 116.382812 42.554688 116.382812 C 42.554688 116.382812 43.566406 125.308594 44.171875 125.308594 C 44.777344 125.308594 55.300781 126.324219 55.703125 125.714844 C 56.109375 125.105469 56.917969 109.484375 56.917969 109.484375 C 56.917969 109.484375 58.019531 102.121094 54.535156 101.136719 C 51.050781 100.15625 31.023438 105.429688 31.023438 105.429688 Z M 31.023438 105.429688 "/>
<path style=" stroke:none;fill-rule:nonzero;fill:rgb(18.431373%,18.039216%,25.490196%);fill-opacity:1;" d="M 47.207031 166.488281 C 47.207031 166.488281 43.566406 164.457031 43.363281 166.082031 C 43.160156 167.703125 40.933594 173.585938 40.933594 173.585938 C 40.933594 173.585938 38.710938 178.253906 43.566406 178.457031 C 48.421875 178.660156 49.632812 176.425781 49.632812 175.414062 C 49.632812 174.398438 49.089844 167.441406 49.089844 167.441406 Z M 47.207031 166.488281 "/>
<path style=" stroke:none;fill-rule:nonzero;fill:rgb(62.745098%,38.039216%,41.568627%);fill-opacity:1;" d="M 59.75 80.070312 L 60.761719 88.996094 C 60.761719 88.996094 61.976562 93.867188 61.167969 95.894531 C 60.355469 97.921875 57.324219 107.253906 57.324219 107.253906 C 57.324219 107.253906 56.511719 102.183594 54.492188 101.574219 L 55.703125 90.011719 C 55.703125 90.011719 52.808594 82.796875 53.445312 81.839844 C 54.085938 80.882812 59.75 80.070312 59.75 80.070312 Z M 59.75 80.070312 "/>
<path style=" stroke:none;fill-rule:nonzero;fill:rgb(62.745098%,38.039216%,41.568627%);fill-opacity:1;" d="M 23.738281 80.679688 L 24.144531 88.792969 C 24.144531 88.792969 22.726562 95.894531 25.558594 103.398438 L 25.964844 106.644531 L 28.59375 111.71875 C 28.59375 111.71875 29.199219 106.847656 30.414062 106.847656 C 30.414062 106.847656 29.199219 103.601562 29.605469 101.777344 C 30.011719 99.953125 29.402344 90.214844 29.402344 90.214844 L 30.414062 82.335938 Z M 23.738281 80.679688 "/>
<path style=" stroke:none;fill-rule:nonzero;fill:rgb(81.568627%,80.392157%,88.235294%);fill-opacity:1;" d="M 55.300781 68.914062 L 57.523438 68.914062 C 57.523438 68.914062 62.785156 81.085938 60.761719 81.289062 C 58.738281 81.492188 52.265625 83.113281 52.0625 82.304688 C 51.859375 81.492188 55.300781 68.914062 55.300781 68.914062 Z M 55.300781 68.914062 "/>
<path style=" stroke:none;fill-rule:nonzero;fill:rgb(81.568627%,80.392157%,88.235294%);fill-opacity:1;" d="M 25.964844 69.929688 L 24.144531 71.753906 C 24.144531 71.753906 21.714844 80.882812 23.535156 81.898438 C 25.355469 82.910156 32.234375 84.128906 32.640625 83.316406 C 33.042969 82.507812 25.964844 69.929688 25.964844 69.929688 Z M 25.964844 69.929688 "/>
<path style=" stroke:none;fill-rule:nonzero;fill:rgb(24.705882%,23.921569%,33.72549%);fill-opacity:1;" d="M 20.9375 170.902344 L 20.707031 170.8125 C 20.65625 170.792969 15.574219 168.84375 13.195312 164.417969 C 10.816406 159.992188 11.980469 154.664062 11.992188 154.609375 L 12.046875 154.367188 L 12.277344 154.453125 C 12.332031 154.472656 17.410156 156.425781 19.789062 160.851562 C 22.171875 165.277344 21.003906 170.605469 20.992188 170.65625 Z M 13.574219 164.210938 C 15.589844 167.953125 19.601562 169.871094 20.621094 170.308594 C 20.8125 169.214844 21.421875 164.792969 19.410156 161.058594 C 17.398438 157.320312 13.382812 155.398438 12.367188 154.957031 C 12.171875 156.054688 11.566406 160.472656 13.574219 164.210938 Z M 13.574219 164.210938 "/>
<path style=" stroke:none;fill-rule:nonzero;fill:rgb(91.372549%,43.137255%,31.372549%);fill-opacity:1;" d="M 15.011719 162.863281 C 19.289062 165.445312 20.9375 170.570312 20.9375 170.570312 C 20.9375 170.570312 15.652344 171.511719 11.375 168.929688 C 7.097656 166.351562 5.449219 161.226562 5.449219 161.226562 C 5.449219 161.226562 10.738281 160.285156 15.011719 162.863281 Z M 15.011719 162.863281 "/>
<path style=" stroke:none;fill-rule:nonzero;fill:rgb(24.705882%,23.921569%,33.72549%);fill-opacity:1;" d="M 177.8125 7.015625 L 177.8125 163.136719 C 177.816406 165.1875 176.921875 167.140625 175.367188 168.472656 C 174.109375 169.558594 172.507812 170.152344 170.851562 170.148438 L 107.9375 170.148438 C 106.550781 170.152344 105.195312 169.734375 104.046875 168.957031 C 102.125 167.648438 100.972656 165.46875 100.972656 163.136719 L 100.972656 7.015625 C 100.964844 3.148438 104.082031 0.0078125 107.9375 0 L 117.351562 0 L 117.351562 1.214844 C 117.34375 4.398438 119.910156 6.984375 123.085938 6.996094 L 155.082031 6.996094 C 156.308594 6.996094 157.5 6.601562 158.484375 5.867188 C 158.679688 5.722656 158.871094 5.5625 159.046875 5.390625 C 160.179688 4.300781 160.820312 2.792969 160.816406 1.214844 L 160.816406 0 L 170.851562 0 C 174.707031 0.0078125 177.824219 3.148438 177.8125 7.015625 Z M 177.8125 7.015625 "/>
<use xlink:href="#surface5" mask="url(#mask0)"/>
<path style=" stroke:none;fill-rule:nonzero;fill:rgb(91.372549%,43.137255%,31.372549%);fill-opacity:1;" d="M 249.890625 99.859375 L 140.203125 99.859375 L 140.203125 136.179688 L 149.386719 126.96875 L 249.890625 126.96875 Z M 249.890625 99.859375 "/>
<path style=" stroke:none;fill-rule:nonzero;fill:rgb(100%,100%,100%);fill-opacity:1;" d="M 157.296875 105.996094 L 232.800781 105.996094 L 232.800781 112.136719 L 157.296875 112.136719 Z M 157.296875 105.996094 "/>
<path style=" stroke:none;fill-rule:nonzero;fill:rgb(100%,100%,100%);fill-opacity:1;" d="M 157.296875 115.203125 L 232.800781 115.203125 L 232.800781 121.34375 L 157.296875 121.34375 Z M 157.296875 115.203125 "/>
<path style=" stroke:none;fill-rule:nonzero;fill:rgb(93.72549%,93.72549%,93.72549%);fill-opacity:1;" d="M 167.894531 40.035156 C 168.152344 38.769531 167.691406 37.464844 166.695312 36.648438 C 165.699219 35.832031 164.332031 35.636719 163.148438 36.144531 C 161.433594 33.957031 158.5 33.136719 155.902344 34.125 C 153.4375 31.328125 149.507812 30.351562 146.027344 31.660156 C 142.546875 32.972656 140.230469 36.304688 140.210938 40.035156 Z M 167.894531 40.035156 "/>
<path style=" stroke:none;fill-rule:nonzero;fill:rgb(93.72549%,93.72549%,93.72549%);fill-opacity:1;" d="M 128.71875 52.355469 C 128.71875 48.617188 126.414062 45.269531 122.925781 43.945312 C 119.4375 42.621094 115.5 43.597656 113.027344 46.398438 C 109.90625 45.210938 106.40625 46.648438 105.007812 49.6875 C 103.171875 49.371094 101.414062 50.570312 101.039062 52.402344 L 128.71875 52.402344 C 128.71875 52.386719 128.71875 52.371094 128.71875 52.355469 Z M 128.71875 52.355469 "/>
<path style=" stroke:none;fill-rule:nonzero;fill:rgb(93.72549%,93.72549%,93.72549%);fill-opacity:1;" d="M 163.386719 62.386719 C 163.386719 59.253906 161.453125 56.449219 158.53125 55.339844 C 155.609375 54.230469 152.308594 55.046875 150.238281 57.394531 C 147.625 56.402344 144.6875 57.605469 143.515625 60.152344 C 141.976562 59.886719 140.507812 60.894531 140.191406 62.425781 L 163.386719 62.425781 C 163.386719 62.414062 163.386719 62.402344 163.386719 62.386719 Z M 163.386719 62.386719 "/>
<path style=" stroke:none;fill-rule:nonzero;fill:rgb(93.72549%,93.72549%,93.72549%);fill-opacity:1;" d="M 146.566406 51.304688 L 145.914062 50.601562 L 144.914062 51.539062 L 145.847656 52.539062 L 146.566406 51.867188 L 146.847656 51.605469 Z M 145.851562 52.390625 L 145.0625 51.542969 L 145.90625 50.75 L 146.566406 51.457031 L 146.699219 51.597656 L 146.566406 51.722656 Z M 145.851562 52.390625 "/>
<path style=" stroke:none;fill-rule:nonzero;fill:rgb(93.72549%,93.72549%,93.72549%);fill-opacity:1;" d="M 155.070312 44.980469 L 154.070312 45.914062 L 155.003906 46.917969 L 156.003906 45.984375 Z M 154.21875 45.921875 L 155.066406 45.128906 L 155.855469 45.976562 L 155.007812 46.769531 Z M 154.21875 45.921875 "/>
<path style=" stroke:none;fill-rule:nonzero;fill:rgb(93.72549%,93.72549%,93.72549%);fill-opacity:1;" d="M 117.214844 67.269531 L 116.214844 68.207031 L 117.148438 69.210938 L 118.148438 68.273438 Z M 116.363281 68.210938 L 117.210938 67.417969 L 118 68.269531 L 117.152344 69.0625 Z M 116.363281 68.210938 "/>
<path style=" stroke:none;fill-rule:nonzero;fill:rgb(93.72549%,93.72549%,93.72549%);fill-opacity:1;" d="M 156.472656 71.445312 L 155.902344 70.832031 L 154.898438 71.765625 L 155.832031 72.769531 L 156.472656 72.171875 L 156.835938 71.835938 Z M 155.839844 72.621094 L 155.046875 71.773438 L 155.894531 70.980469 L 156.472656 71.597656 L 156.6875 71.828125 L 156.472656 72.03125 Z M 155.839844 72.621094 "/>
<path style=" stroke:none;fill-rule:nonzero;fill:rgb(93.72549%,93.72549%,93.72549%);fill-opacity:1;" d="M 111.058594 61.472656 L 111.046875 61.460938 L 110.046875 62.398438 L 110.980469 63.402344 L 111.058594 63.328125 L 111.980469 62.464844 Z M 110.984375 63.25 L 110.195312 62.402344 L 111.042969 61.609375 L 111.058594 61.628906 L 111.832031 62.460938 L 111.058594 63.183594 Z M 110.984375 63.25 "/>
<path style=" stroke:none;fill-rule:nonzero;fill:rgb(93.72549%,93.72549%,93.72549%);fill-opacity:1;" d="M 122.84375 57.445312 L 122.84375 58.816406 L 124.210938 58.816406 L 124.210938 57.445312 Z M 124.105469 58.710938 L 122.949219 58.710938 L 122.949219 57.546875 L 124.105469 57.546875 Z M 124.105469 58.710938 "/>
<path style=" stroke:none;fill-rule:nonzero;fill:rgb(93.72549%,93.72549%,93.72549%);fill-opacity:1;" d="M 147.605469 68.21875 L 147.605469 69.589844 L 148.976562 69.589844 L 148.976562 68.21875 Z M 148.871094 69.484375 L 147.710938 69.484375 L 147.710938 68.324219 L 148.871094 68.324219 Z M 148.871094 69.484375 "/>
<use xlink:href="#surface8" mask="url(#mask1)"/>
<use xlink:href="#surface11" mask="url(#mask2)"/>
<use xlink:href="#surface14" mask="url(#mask3)"/>
<use xlink:href="#surface17" mask="url(#mask4)"/>
<use xlink:href="#surface20" mask="url(#mask5)"/>
<use xlink:href="#surface23" mask="url(#mask6)"/>
<use xlink:href="#surface26" mask="url(#mask7)"/>
<use xlink:href="#surface29" mask="url(#mask8)"/>
<use xlink:href="#surface32" mask="url(#mask9)"/>
<use xlink:href="#surface35" mask="url(#mask10)"/>
<use xlink:href="#surface38" mask="url(#mask11)"/>
</g>
</svg>
