<svg xmlns="http://www.w3.org/2000/svg" >
    <defs width="30pt" height="30pt" viewBox="0 0 30 30" version="1.1">
        <symbol id="search" >
        <path style=" stroke:none;fill-rule:nonzero;fill:rgb(0%,0%,0%);fill-opacity:1;" d="M 29.042969 27.324219 L 21.902344 19.898438 C 23.738281 17.71875 24.742188 14.972656 24.742188 12.113281 C 24.742188 5.433594 19.308594 0 12.628906 0 C 5.953125 0 0.519531 5.433594 0.519531 12.113281 C 0.519531 18.792969 5.953125 24.226562 12.628906 24.226562 C 15.136719 24.226562 17.527344 23.46875 19.570312 22.03125 L 26.765625 29.515625 C 27.066406 29.828125 27.46875 30 27.902344 30 C 28.3125 30 28.703125 29.84375 28.996094 29.558594 C 29.625 28.957031 29.644531 27.953125 29.042969 27.324219 Z M 12.628906 3.160156 C 17.566406 3.160156 21.582031 7.175781 21.582031 12.113281 C 21.582031 17.050781 17.566406 21.066406 12.628906 21.066406 C 7.695312 21.066406 3.679688 17.050781 3.679688 12.113281 C 3.679688 7.175781 7.695312 3.160156 12.628906 3.160156 Z M 12.628906 3.160156 "/>
        </symbol>

        <symbol id="arrow">
        <path style=" stroke:none;fill-rule:nonzero;fill:rgb(0%,0%,0%);fill-opacity:1;" d="M 9.308594 4.230469 L 5.140625 0.0625 C 5.101562 0.0234375 5.050781 0 4.992188 0 C 4.9375 0 4.886719 0.0234375 4.847656 0.0625 L 0.691406 4.230469 C 0.632812 4.289062 0.613281 4.378906 0.648438 4.457031 C 0.679688 4.535156 0.753906 4.585938 0.839844 4.585938 L 3.128906 4.585938 L 3.128906 9.792969 C 3.128906 9.90625 3.222656 10 3.339844 10 L 6.671875 10 C 6.785156 10 6.878906 9.90625 6.878906 9.792969 L 6.878906 4.585938 L 9.160156 4.585938 C 9.246094 4.585938 9.320312 4.535156 9.351562 4.457031 C 9.386719 4.378906 9.367188 4.289062 9.308594 4.230469 Z M 9.308594 4.230469 "/>
        </symbol>
        
        
        <symbol id="lady">
        <path style=" stroke:none;fill-rule:nonzero;fill:rgb(94.901961%,94.901961%,94.901961%);fill-opacity:1;" d="M 101.105469 49.777344 C 100.199219 49.738281 99.371094 49.371094 98.996094 48.796875 C 98.980469 48.769531 98.964844 48.742188 98.949219 48.714844 C 98.8125 48.472656 98.769531 48.191406 98.917969 47.953125 C 99.066406 47.710938 99.441406 47.53125 99.816406 47.566406 C 100.191406 47.605469 100.480469 47.90625 100.328125 48.144531 C 100.292969 47.664062 100.265625 47.15625 100.648438 46.738281 C 100.863281 46.519531 101.136719 46.375 101.4375 46.328125 C 102.214844 46.1875 102.730469 46.632812 102.832031 47.078125 C 102.910156 47.40625 102.804688 47.742188 102.699219 48.070312 C 103.023438 47.683594 103.792969 47.511719 104.378906 47.695312 C 104.96875 47.878906 105.292969 48.386719 105.09375 48.808594 C 104.855469 49.308594 104.066406 49.566406 103.332031 49.699219 C 102.726562 49.8125 101.820312 49.808594 101.105469 49.777344 Z M 101.105469 49.777344 "/>
<path style=" stroke:none;fill-rule:nonzero;fill:rgb(94.901961%,94.901961%,94.901961%);fill-opacity:1;" d="M 69.503906 49.777344 C 68.59375 49.738281 67.769531 49.371094 67.394531 48.796875 C 67.378906 48.769531 67.359375 48.742188 67.34375 48.714844 C 67.207031 48.472656 67.164062 48.191406 67.316406 47.953125 C 67.464844 47.710938 67.835938 47.53125 68.210938 47.566406 C 68.585938 47.605469 68.878906 47.90625 68.722656 48.144531 C 68.691406 47.664062 68.660156 47.15625 69.046875 46.738281 C 69.257812 46.519531 69.535156 46.375 69.835938 46.328125 C 70.613281 46.1875 71.128906 46.632812 71.230469 47.078125 C 71.308594 47.40625 71.203125 47.742188 71.097656 48.070312 C 71.421875 47.683594 72.1875 47.511719 72.777344 47.695312 C 73.363281 47.878906 73.691406 48.386719 73.488281 48.808594 C 73.253906 49.308594 72.464844 49.566406 71.730469 49.699219 C 71.125 49.8125 70.21875 49.808594 69.503906 49.777344 Z M 69.503906 49.777344 "/>
<path style=" stroke:none;fill-rule:nonzero;fill:rgb(94.901961%,94.901961%,94.901961%);fill-opacity:1;" d="M 40.421875 21.0625 L 33.910156 21.0625 C 32.832031 21.0625 31.960938 20.179688 31.957031 19.09375 L 31.957031 6.800781 C 31.960938 5.714844 32.832031 4.835938 33.910156 4.832031 L 40.421875 4.832031 C 41.5 4.835938 42.371094 5.714844 42.375 6.800781 L 42.375 19.09375 C 42.371094 20.179688 41.5 21.0625 40.421875 21.0625 Z M 40.421875 21.0625 "/>
<path style=" stroke:none;fill-rule:nonzero;fill:rgb(100%,72.156863%,72.156863%);fill-opacity:1;" d="M 80.40625 48.46875 L 78.953125 48.46875 L 78.261719 42.828125 L 80.40625 42.828125 Z M 80.40625 48.46875 "/>
<path style=" stroke:none;fill-rule:nonzero;fill:rgb(18.431373%,18.039216%,25.490196%);fill-opacity:1;" d="M 80.773438 49.886719 L 76.097656 49.886719 L 76.097656 49.828125 C 76.097656 48.8125 76.910156 47.992188 77.917969 47.992188 L 80.773438 47.992188 Z M 80.773438 49.886719 "/>
<path style=" stroke:none;fill-rule:nonzero;fill:rgb(100%,72.156863%,72.156863%);fill-opacity:1;" d="M 96.613281 47.101562 L 95.246094 47.589844 L 92.726562 42.503906 L 94.746094 41.78125 Z M 96.613281 47.101562 "/>
<path style=" stroke:none;fill-rule:nonzero;fill:rgb(18.431373%,18.039216%,25.490196%);fill-opacity:1;" d="M 97.433594 48.3125 L 93.023438 49.886719 L 93.003906 49.832031 C 92.667969 48.875 93.164062 47.828125 94.113281 47.488281 L 96.804688 46.527344 Z M 97.433594 48.3125 "/>
<path style=" stroke:none;fill-rule:nonzero;fill:rgb(18.431373%,18.039216%,25.490196%);fill-opacity:1;" d="M 80.363281 46.574219 C 80.332031 46.574219 80.300781 46.570312 80.265625 46.566406 L 78.492188 46.242188 C 78.242188 46.195312 78.0625 45.980469 78.054688 45.722656 C 77.796875 33.679688 79.066406 25.589844 81.824219 19.789062 C 81.925781 19.578125 82.148438 19.457031 82.378906 19.492188 L 88.761719 20.421875 C 89 20.457031 89.1875 20.648438 89.214844 20.890625 L 89.777344 25.890625 C 89.777344 25.917969 89.785156 25.945312 89.792969 25.972656 L 95.910156 44.453125 C 95.996094 44.734375 95.847656 45.03125 95.570312 45.125 L 93.917969 45.679688 C 93.667969 45.765625 93.394531 45.648438 93.273438 45.410156 L 84.996094 29.679688 C 84.964844 29.609375 84.890625 29.570312 84.816406 29.582031 C 84.742188 29.589844 84.683594 29.644531 84.664062 29.71875 L 80.882812 46.152344 C 80.828125 46.398438 80.613281 46.574219 80.363281 46.574219 Z M 80.363281 46.574219 "/>
<path style=" stroke:none;fill-rule:nonzero;fill:rgb(100%,72.156863%,72.156863%);fill-opacity:1;" d="M 75.320312 10.035156 C 75.335938 10.101562 75.34375 10.164062 75.347656 10.230469 L 80.433594 13.1875 L 81.667969 12.472656 L 82.988281 14.210938 L 80.921875 15.695312 C 80.578125 15.941406 80.117188 15.929688 79.785156 15.667969 L 74.542969 11.496094 C 74.058594 11.675781 73.511719 11.535156 73.175781 11.144531 C 72.835938 10.75 72.773438 10.1875 73.015625 9.730469 C 73.261719 9.269531 73.761719 9.011719 74.273438 9.078125 C 74.785156 9.148438 75.203125 9.527344 75.320312 10.035156 Z M 75.320312 10.035156 "/>
<path style=" stroke:none;fill-rule:nonzero;fill:rgb(91.372549%,43.137255%,31.372549%);fill-opacity:1;" d="M 80.503906 12.894531 C 80.535156 12.738281 80.628906 12.609375 80.765625 12.53125 L 83.097656 11.214844 C 83.746094 10.714844 84.671875 10.832031 85.171875 11.484375 C 85.671875 12.132812 85.554688 13.066406 84.914062 13.574219 L 83.050781 15.519531 C 82.945312 15.632812 82.792969 15.691406 82.640625 15.683594 C 82.484375 15.675781 82.34375 15.597656 82.246094 15.476562 L 80.605469 13.328125 C 80.507812 13.203125 80.472656 13.046875 80.503906 12.894531 Z M 80.503906 12.894531 "/>
<path style=" stroke:none;fill-rule:nonzero;fill:rgb(100%,72.156863%,72.156863%);fill-opacity:1;" d="M 88.84375 6.808594 C 88.84375 8.429688 87.542969 9.742188 85.9375 9.742188 C 84.332031 9.742188 83.03125 8.429688 83.03125 6.808594 C 83.03125 5.191406 84.332031 3.878906 85.9375 3.878906 C 87.542969 3.878906 88.84375 5.191406 88.84375 6.808594 Z M 88.84375 6.808594 "/>
<path style=" stroke:none;fill-rule:nonzero;fill:rgb(91.372549%,43.137255%,31.372549%);fill-opacity:1;" d="M 88.769531 21.046875 C 88.738281 21.046875 88.710938 21.042969 88.683594 21.039062 L 82.390625 20 C 82.246094 19.976562 82.121094 19.894531 82.035156 19.773438 C 81.953125 19.652344 81.925781 19.5 81.957031 19.359375 L 82.261719 17.902344 C 82.105469 17.667969 80.828125 15.617188 82.382812 13.695312 C 82.320312 12.273438 83.394531 11.058594 84.800781 10.957031 L 88.054688 10.710938 C 88.902344 10.644531 89.730469 11 90.269531 11.660156 C 90.8125 12.324219 91 13.210938 90.777344 14.039062 L 89.289062 20.628906 C 89.230469 20.871094 89.015625 21.046875 88.769531 21.046875 Z M 88.769531 21.046875 "/>
<path style=" stroke:none;fill-rule:nonzero;fill:rgb(100%,72.156863%,72.156863%);fill-opacity:1;" d="M 94.644531 26.558594 C 94.859375 26.246094 94.925781 25.855469 94.832031 25.488281 C 94.734375 25.125 94.480469 24.820312 94.136719 24.660156 L 90.554688 13.554688 L 88.480469 14.550781 L 92.398438 25.359375 C 92.164062 25.96875 92.421875 26.660156 92.992188 26.964844 C 93.566406 27.269531 94.273438 27.09375 94.644531 26.558594 Z M 94.644531 26.558594 "/>
<path style=" stroke:none;fill-rule:nonzero;fill:rgb(91.372549%,43.137255%,31.372549%);fill-opacity:1;" d="M 91.347656 15.40625 L 88.589844 16.246094 C 88.433594 16.292969 88.261719 16.269531 88.121094 16.179688 C 87.980469 16.089844 87.886719 15.945312 87.863281 15.777344 L 87.445312 12.914062 C 87.195312 12.070312 87.671875 11.183594 88.507812 10.933594 C 89.34375 10.679688 90.226562 11.15625 90.476562 12 L 91.699219 14.609375 C 91.769531 14.761719 91.769531 14.9375 91.703125 15.089844 C 91.636719 15.242188 91.507812 15.355469 91.347656 15.40625 Z M 91.347656 15.40625 "/>
<path style=" stroke:none;fill-rule:nonzero;fill:rgb(0%,0%,0%);fill-opacity:1;" d="M 83.113281 6.921875 C 84.429688 7.429688 85.917969 7.113281 86.925781 6.117188 C 86.617188 6.929688 86.703125 10.371094 86.703125 10.371094 C 86.703125 10.371094 89.410156 9.078125 89.777344 8.851562 C 91.941406 7.515625 88.953125 1.699219 86.46875 2.617188 C 86.046875 2.773438 85.695312 2.953125 85.523438 3.371094 C 85.152344 2.910156 84.449219 2.8125 83.910156 3.046875 C 83.371094 3.285156 82.984375 3.800781 82.777344 4.355469 C 82.449219 5.265625 82.535156 6.273438 83.015625 7.113281 Z M 83.113281 6.921875 "/>
<path style=" stroke:none;fill-rule:nonzero;fill:rgb(24.705882%,23.921569%,33.72549%);fill-opacity:1;" d="M 70.425781 0 L 3.90625 0 C 1.75 0.00390625 0.00390625 1.765625 0 3.9375 L 0 22.316406 C 0.00390625 24.488281 1.75 26.25 3.90625 26.253906 L 70.425781 26.253906 C 72.582031 26.25 74.328125 24.488281 74.332031 22.316406 L 74.332031 3.9375 C 74.328125 1.765625 72.582031 0.00390625 70.425781 0 Z M 74.09375 22.316406 C 74.09375 24.355469 72.453125 26.011719 70.425781 26.015625 L 3.90625 26.015625 C 1.878906 26.011719 0.238281 24.355469 0.238281 22.316406 L 0.238281 3.9375 C 0.238281 1.894531 1.878906 0.242188 3.90625 0.238281 L 70.425781 0.238281 C 72.453125 0.242188 74.09375 1.894531 74.09375 3.9375 Z M 74.09375 22.316406 "/>
<path style=" stroke:none;fill-rule:nonzero;fill:rgb(24.705882%,23.921569%,33.72549%);fill-opacity:1;" d="M 10.503906 17.363281 C 9.71875 17.363281 9.085938 16.722656 9.085938 15.929688 C 9.085938 15.140625 9.71875 14.5 10.503906 14.5 C 11.289062 14.5 11.925781 15.140625 11.925781 15.929688 C 11.925781 16.722656 11.289062 17.363281 10.503906 17.363281 Z M 10.503906 14.738281 C 9.851562 14.738281 9.320312 15.273438 9.320312 15.929688 C 9.320312 16.589844 9.851562 17.125 10.503906 17.125 C 11.160156 17.125 11.6875 16.589844 11.6875 15.929688 C 11.6875 15.273438 11.15625 14.738281 10.503906 14.738281 Z M 10.503906 14.738281 "/>
<path style=" stroke:none;fill-rule:nonzero;fill:rgb(24.705882%,23.921569%,33.72549%);fill-opacity:1;" d="M 10.457031 14.140625 C 10.394531 14.140625 10.339844 14.085938 10.339844 14.019531 L 10.339844 12.648438 C 10.339844 12.582031 10.394531 12.53125 10.457031 12.53125 C 10.523438 12.53125 10.578125 12.582031 10.578125 12.648438 L 10.578125 14.019531 C 10.578125 14.085938 10.523438 14.140625 10.457031 14.140625 Z M 10.457031 14.140625 "/>
<path style=" stroke:none;fill-rule:nonzero;fill:rgb(24.705882%,23.921569%,33.72549%);fill-opacity:1;" d="M 8.609375 16.003906 L 7.25 16.003906 C 7.183594 16.003906 7.132812 15.949219 7.132812 15.882812 C 7.132812 15.816406 7.183594 15.765625 7.25 15.765625 L 8.609375 15.765625 C 8.675781 15.765625 8.730469 15.816406 8.730469 15.882812 C 8.730469 15.949219 8.675781 16.003906 8.609375 16.003906 Z M 8.609375 16.003906 "/>
<path style=" stroke:none;fill-rule:nonzero;fill:rgb(24.705882%,23.921569%,33.72549%);fill-opacity:1;" d="M 13.582031 16.003906 L 12.222656 16.003906 C 12.15625 16.003906 12.101562 15.949219 12.101562 15.882812 C 12.101562 15.816406 12.15625 15.765625 12.222656 15.765625 L 13.582031 15.765625 C 13.648438 15.765625 13.699219 15.816406 13.699219 15.882812 C 13.699219 15.949219 13.648438 16.003906 13.582031 16.003906 Z M 13.582031 16.003906 "/>
<path style=" stroke:none;fill-rule:nonzero;fill:rgb(24.705882%,23.921569%,33.72549%);fill-opacity:1;" d="M 12.183594 14.699219 C 12.136719 14.699219 12.09375 14.667969 12.074219 14.625 C 12.054688 14.578125 12.066406 14.527344 12.101562 14.492188 L 12.671875 13.9375 C 12.71875 13.890625 12.792969 13.890625 12.839844 13.9375 C 12.882812 13.984375 12.882812 14.0625 12.835938 14.105469 L 12.265625 14.664062 C 12.242188 14.6875 12.214844 14.699219 12.183594 14.699219 Z M 12.183594 14.699219 "/>
<path style=" stroke:none;fill-rule:nonzero;fill:rgb(24.705882%,23.921569%,33.72549%);fill-opacity:1;" d="M 8.707031 14.699219 C 8.675781 14.699219 8.648438 14.6875 8.625 14.664062 L 8.054688 14.105469 C 8.007812 14.0625 8.007812 13.984375 8.050781 13.9375 C 8.097656 13.890625 8.171875 13.890625 8.21875 13.9375 L 8.789062 14.492188 C 8.824219 14.527344 8.835938 14.578125 8.816406 14.625 C 8.800781 14.667969 8.753906 14.699219 8.707031 14.699219 Z M 8.707031 14.699219 "/>
<path style=" stroke:none;fill-rule:nonzero;fill:rgb(24.705882%,23.921569%,33.72549%);fill-opacity:1;" d="M 8.253906 17.960938 C 8.207031 17.960938 8.164062 17.929688 8.148438 17.886719 C 8.128906 17.84375 8.136719 17.792969 8.171875 17.757812 L 8.742188 17.164062 C 8.785156 17.117188 8.863281 17.117188 8.910156 17.164062 C 8.957031 17.207031 8.957031 17.285156 8.910156 17.332031 L 8.339844 17.921875 C 8.320312 17.945312 8.289062 17.960938 8.253906 17.960938 Z M 8.253906 17.960938 "/>
<path style=" stroke:none;fill-rule:nonzero;fill:rgb(24.705882%,23.921569%,33.72549%);fill-opacity:1;" d="M 12.871094 18.078125 C 12.839844 18.078125 12.808594 18.066406 12.789062 18.042969 L 12.097656 17.332031 C 12.054688 17.285156 12.054688 17.207031 12.101562 17.164062 C 12.148438 17.117188 12.222656 17.117188 12.269531 17.164062 L 12.957031 17.875 C 12.988281 17.910156 13 17.960938 12.980469 18.003906 C 12.960938 18.050781 12.917969 18.078125 12.871094 18.078125 Z M 12.871094 18.078125 "/>
<path style=" stroke:none;fill-rule:nonzero;fill:rgb(24.705882%,23.921569%,33.72549%);fill-opacity:1;" d="M 10.457031 19.273438 C 10.394531 19.273438 10.339844 19.21875 10.339844 19.152344 L 10.339844 17.78125 C 10.339844 17.714844 10.394531 17.660156 10.457031 17.660156 C 10.523438 17.660156 10.578125 17.714844 10.578125 17.78125 L 10.578125 19.152344 C 10.578125 19.21875 10.523438 19.273438 10.457031 19.273438 Z M 10.457031 19.273438 "/>
<path style=" stroke:none;fill-rule:nonzero;fill:rgb(24.705882%,23.921569%,33.72549%);fill-opacity:1;" d="M 25.941406 18.199219 L 21.988281 18.199219 C 21.148438 18.183594 20.476562 17.492188 20.476562 16.648438 C 20.476562 15.800781 21.148438 15.109375 21.988281 15.09375 L 22.292969 15.09375 C 22.597656 14.441406 23.25 14.023438 23.964844 14.019531 C 24.957031 14.03125 25.769531 14.8125 25.824219 15.8125 L 25.941406 15.8125 C 26.585938 15.820312 27.105469 16.351562 27.105469 17.003906 C 27.105469 17.65625 26.585938 18.1875 25.941406 18.199219 Z M 21.988281 15.335938 C 21.28125 15.347656 20.714844 15.933594 20.714844 16.648438 C 20.714844 17.363281 21.28125 17.945312 21.988281 17.960938 L 25.941406 17.960938 C 26.457031 17.949219 26.867188 17.523438 26.867188 17.003906 C 26.867188 16.484375 26.457031 16.0625 25.941406 16.050781 L 25.707031 16.050781 C 25.644531 16.050781 25.589844 15.996094 25.589844 15.929688 C 25.597656 15.015625 24.871094 14.269531 23.964844 14.261719 C 23.316406 14.261719 22.730469 14.65625 22.476562 15.261719 C 22.457031 15.304688 22.414062 15.335938 22.367188 15.335938 Z M 21.988281 15.335938 "/>
<path style=" stroke:none;fill-rule:nonzero;fill:rgb(24.705882%,23.921569%,33.72549%);fill-opacity:1;" d="M 39.140625 15.9375 L 39.046875 15.71875 C 39.539062 15.507812 39.832031 14.992188 39.757812 14.457031 C 39.6875 13.921875 39.265625 13.503906 38.738281 13.433594 C 38.207031 13.367188 37.695312 13.664062 37.492188 14.164062 L 37.273438 14.070312 C 37.519531 13.472656 38.128906 13.117188 38.765625 13.199219 C 39.402344 13.28125 39.90625 13.78125 39.992188 14.425781 C 40.082031 15.066406 39.730469 15.683594 39.140625 15.9375 Z M 39.140625 15.9375 "/>
<path style=" stroke:none;fill-rule:nonzero;fill:rgb(24.705882%,23.921569%,33.72549%);fill-opacity:1;" d="M 39.316406 18.199219 L 35.363281 18.199219 C 34.523438 18.183594 33.851562 17.492188 33.851562 16.648438 C 33.851562 15.800781 34.523438 15.109375 35.363281 15.09375 L 35.667969 15.09375 C 35.972656 14.441406 36.625 14.023438 37.339844 14.019531 C 38.332031 14.03125 39.144531 14.8125 39.199219 15.8125 L 39.316406 15.8125 C 39.960938 15.820312 40.480469 16.351562 40.480469 17.003906 C 40.480469 17.65625 39.960938 18.1875 39.316406 18.199219 Z M 35.363281 15.335938 C 34.65625 15.347656 34.089844 15.933594 34.089844 16.648438 C 34.089844 17.363281 34.65625 17.945312 35.363281 17.960938 L 39.316406 17.960938 C 39.832031 17.949219 40.242188 17.523438 40.242188 17.003906 C 40.242188 16.484375 39.832031 16.0625 39.316406 16.050781 L 39.082031 16.050781 C 39.019531 16.050781 38.964844 15.996094 38.964844 15.929688 C 38.972656 15.015625 38.246094 14.269531 37.339844 14.261719 C 36.691406 14.261719 36.105469 14.65625 35.851562 15.261719 C 35.832031 15.304688 35.789062 15.335938 35.742188 15.335938 Z M 35.363281 15.335938 "/>
<path style=" stroke:none;fill-rule:nonzero;fill:rgb(24.705882%,23.921569%,33.72549%);fill-opacity:1;" d="M 52.691406 17.601562 L 52.214844 17.601562 C 52.148438 17.601562 52.097656 17.546875 52.097656 17.480469 C 52.097656 17.417969 52.148438 17.363281 52.214844 17.363281 L 52.691406 17.363281 C 53.207031 17.351562 53.617188 16.929688 53.617188 16.40625 C 53.617188 15.886719 53.207031 15.464844 52.691406 15.453125 L 52.457031 15.453125 C 52.394531 15.453125 52.339844 15.398438 52.339844 15.335938 C 52.347656 14.421875 51.621094 13.671875 50.714844 13.664062 C 50.066406 13.667969 49.480469 14.0625 49.226562 14.664062 C 49.207031 14.710938 49.164062 14.738281 49.117188 14.738281 L 48.738281 14.738281 C 48.03125 14.75 47.464844 15.335938 47.464844 16.050781 C 47.464844 16.765625 48.03125 17.347656 48.738281 17.363281 L 49.105469 17.363281 C 49.171875 17.363281 49.226562 17.417969 49.226562 17.480469 C 49.226562 17.546875 49.171875 17.601562 49.105469 17.601562 L 48.738281 17.601562 C 47.898438 17.585938 47.226562 16.898438 47.226562 16.050781 C 47.226562 15.203125 47.898438 14.511719 48.738281 14.5 L 49.042969 14.5 C 49.347656 13.84375 50 13.429688 50.714844 13.425781 C 51.707031 13.433594 52.519531 14.21875 52.574219 15.214844 L 52.691406 15.214844 C 53.335938 15.226562 53.855469 15.757812 53.855469 16.40625 C 53.855469 17.058594 53.335938 17.589844 52.691406 17.601562 Z M 52.691406 17.601562 "/>
<path style=" stroke:none;fill-rule:nonzero;fill:rgb(24.705882%,23.921569%,33.72549%);fill-opacity:1;" d="M 50.695312 18.117188 C 50.628906 18.117188 50.578125 18.0625 50.578125 17.996094 L 50.578125 16.625 C 50.578125 16.558594 50.628906 16.503906 50.695312 16.503906 C 50.761719 16.503906 50.8125 16.558594 50.8125 16.625 L 50.8125 17.996094 C 50.8125 18.0625 50.761719 18.117188 50.695312 18.117188 Z M 50.695312 18.117188 "/>
<path style=" stroke:none;fill-rule:nonzero;fill:rgb(24.705882%,23.921569%,33.72549%);fill-opacity:1;" d="M 49.867188 18.832031 C 49.800781 18.832031 49.75 18.777344 49.75 18.714844 L 49.75 17.339844 C 49.75 17.273438 49.800781 17.222656 49.867188 17.222656 C 49.933594 17.222656 49.984375 17.273438 49.984375 17.339844 L 49.984375 18.714844 C 49.984375 18.777344 49.933594 18.832031 49.867188 18.832031 Z M 49.867188 18.832031 "/>
<path style=" stroke:none;fill-rule:nonzero;fill:rgb(24.705882%,23.921569%,33.72549%);fill-opacity:1;" d="M 51.523438 19.191406 C 51.457031 19.191406 51.40625 19.136719 51.40625 19.070312 L 51.40625 17.699219 C 51.40625 17.632812 51.457031 17.578125 51.523438 17.578125 C 51.589844 17.578125 51.640625 17.632812 51.640625 17.699219 L 51.640625 19.070312 C 51.640625 19.136719 51.589844 19.191406 51.523438 19.191406 Z M 51.523438 19.191406 "/>
<path style=" stroke:none;fill-rule:nonzero;fill:rgb(24.705882%,23.921569%,33.72549%);fill-opacity:1;" d="M 66.066406 17.601562 L 65.589844 17.601562 C 65.523438 17.601562 65.472656 17.546875 65.472656 17.480469 C 65.472656 17.417969 65.523438 17.363281 65.589844 17.363281 L 66.066406 17.363281 C 66.582031 17.351562 66.992188 16.929688 66.992188 16.40625 C 66.992188 15.886719 66.582031 15.464844 66.066406 15.453125 L 65.832031 15.453125 C 65.769531 15.453125 65.714844 15.398438 65.714844 15.335938 C 65.722656 14.421875 64.996094 13.671875 64.089844 13.664062 C 63.441406 13.667969 62.855469 14.0625 62.601562 14.664062 C 62.582031 14.710938 62.539062 14.738281 62.492188 14.738281 L 62.113281 14.738281 C 61.40625 14.75 60.839844 15.335938 60.839844 16.050781 C 60.839844 16.765625 61.40625 17.347656 62.113281 17.363281 L 62.480469 17.363281 C 62.546875 17.363281 62.601562 17.417969 62.601562 17.480469 C 62.601562 17.546875 62.546875 17.601562 62.480469 17.601562 L 62.113281 17.601562 C 61.273438 17.585938 60.601562 16.898438 60.601562 16.050781 C 60.601562 15.203125 61.273438 14.511719 62.113281 14.5 L 62.417969 14.5 C 62.722656 13.84375 63.375 13.429688 64.089844 13.425781 C 65.082031 13.433594 65.894531 14.21875 65.949219 15.214844 L 66.066406 15.214844 C 66.710938 15.226562 67.230469 15.757812 67.230469 16.40625 C 67.230469 17.058594 66.710938 17.589844 66.066406 17.601562 Z M 66.066406 17.601562 "/>
<path style=" stroke:none;fill-rule:nonzero;fill:rgb(24.705882%,23.921569%,33.72549%);fill-opacity:1;" d="M 64.152344 17.035156 C 64.152344 17.183594 64.035156 17.304688 63.886719 17.304688 C 63.738281 17.304688 63.621094 17.183594 63.621094 17.035156 C 63.621094 16.886719 63.738281 16.765625 63.886719 16.765625 C 64.035156 16.765625 64.152344 16.886719 64.152344 17.035156 Z M 64.152344 17.035156 "/>
<path style=" stroke:none;fill-rule:nonzero;fill:rgb(24.705882%,23.921569%,33.72549%);fill-opacity:1;" d="M 65.039062 17.394531 C 65.039062 17.539062 64.921875 17.660156 64.773438 17.660156 C 64.628906 17.660156 64.507812 17.539062 64.507812 17.394531 C 64.507812 17.246094 64.628906 17.125 64.773438 17.125 C 64.921875 17.125 65.039062 17.246094 65.039062 17.394531 Z M 65.039062 17.394531 "/>
<path style=" stroke:none;fill-rule:nonzero;fill:rgb(24.705882%,23.921569%,33.72549%);fill-opacity:1;" d="M 63.5625 17.808594 C 63.5625 17.957031 63.441406 18.078125 63.292969 18.078125 C 63.148438 18.078125 63.027344 17.957031 63.027344 17.808594 C 63.027344 17.660156 63.148438 17.542969 63.292969 17.542969 C 63.441406 17.542969 63.5625 17.660156 63.5625 17.808594 Z M 63.5625 17.808594 "/>
<path style=" stroke:none;fill-rule:nonzero;fill:rgb(24.705882%,23.921569%,33.72549%);fill-opacity:1;" d="M 64.507812 18.40625 C 64.507812 18.554688 64.386719 18.675781 64.242188 18.675781 C 64.09375 18.675781 63.976562 18.554688 63.976562 18.40625 C 63.976562 18.257812 64.09375 18.136719 64.242188 18.136719 C 64.386719 18.136719 64.507812 18.257812 64.507812 18.40625 Z M 64.507812 18.40625 "/>
<path style=" stroke:none;fill-rule:nonzero;fill:rgb(91.372549%,43.137255%,31.372549%);fill-opacity:1;" d="M 13.847656 8.53125 L 6.984375 8.53125 C 6.460938 8.53125 6.035156 8.105469 6.035156 7.578125 C 6.035156 7.050781 6.460938 6.621094 6.984375 6.621094 L 13.847656 6.621094 C 14.371094 6.621094 14.796875 7.050781 14.796875 7.578125 C 14.796875 8.105469 14.371094 8.53125 13.847656 8.53125 Z M 13.847656 8.53125 "/>
<path style=" stroke:none;fill-rule:nonzero;fill:rgb(91.372549%,43.137255%,31.372549%);fill-opacity:1;" d="M 27.222656 8.53125 L 20.359375 8.53125 C 19.835938 8.53125 19.410156 8.105469 19.410156 7.578125 C 19.410156 7.050781 19.835938 6.621094 20.359375 6.621094 L 27.222656 6.621094 C 27.746094 6.621094 28.171875 7.050781 28.171875 7.578125 C 28.171875 8.105469 27.746094 8.53125 27.222656 8.53125 Z M 27.222656 8.53125 "/>
<path style=" stroke:none;fill-rule:nonzero;fill:rgb(91.372549%,43.137255%,31.372549%);fill-opacity:1;" d="M 40.597656 8.53125 L 33.734375 8.53125 C 33.210938 8.53125 32.785156 8.105469 32.785156 7.578125 C 32.785156 7.050781 33.210938 6.621094 33.734375 6.621094 L 40.597656 6.621094 C 41.121094 6.621094 41.546875 7.050781 41.546875 7.578125 C 41.546875 8.105469 41.121094 8.53125 40.597656 8.53125 Z M 40.597656 8.53125 "/>
<path style=" stroke:none;fill-rule:nonzero;fill:rgb(91.372549%,43.137255%,31.372549%);fill-opacity:1;" d="M 53.972656 8.53125 L 47.109375 8.53125 C 46.585938 8.53125 46.160156 8.105469 46.160156 7.578125 C 46.160156 7.050781 46.585938 6.621094 47.109375 6.621094 L 53.972656 6.621094 C 54.496094 6.621094 54.921875 7.050781 54.921875 7.578125 C 54.921875 8.105469 54.496094 8.53125 53.972656 8.53125 Z M 53.972656 8.53125 "/>
<path style=" stroke:none;fill-rule:nonzero;fill:rgb(91.372549%,43.137255%,31.372549%);fill-opacity:1;" d="M 67.347656 8.53125 L 60.484375 8.53125 C 59.960938 8.53125 59.535156 8.105469 59.535156 7.578125 C 59.535156 7.050781 59.960938 6.621094 60.484375 6.621094 L 67.347656 6.621094 C 67.871094 6.621094 68.296875 7.050781 68.296875 7.578125 C 68.296875 8.105469 67.871094 8.53125 67.347656 8.53125 Z M 67.347656 8.53125 "/>
<path style=" stroke:none;fill-rule:nonzero;fill:rgb(90.196078%,90.196078%,90.196078%);fill-opacity:1;" d="M 16.808594 19.75 C 16.742188 19.75 16.6875 19.695312 16.6875 19.628906 L 16.6875 10.5625 C 16.6875 10.496094 16.742188 10.441406 16.808594 10.441406 C 16.871094 10.441406 16.925781 10.496094 16.925781 10.5625 L 16.925781 19.628906 C 16.925781 19.695312 16.871094 19.75 16.808594 19.75 Z M 16.808594 19.75 "/>
<path style=" stroke:none;fill-rule:nonzero;fill:rgb(90.196078%,90.196078%,90.196078%);fill-opacity:1;" d="M 30.183594 19.628906 C 30.117188 19.628906 30.0625 19.578125 30.0625 19.511719 L 30.0625 10.441406 C 30.0625 10.375 30.117188 10.320312 30.183594 10.320312 C 30.246094 10.320312 30.300781 10.375 30.300781 10.441406 L 30.300781 19.511719 C 30.300781 19.578125 30.246094 19.628906 30.183594 19.628906 Z M 30.183594 19.628906 "/>
<path style=" stroke:none;fill-rule:nonzero;fill:rgb(90.196078%,90.196078%,90.196078%);fill-opacity:1;" d="M 44.269531 19.628906 C 44.203125 19.628906 44.148438 19.578125 44.148438 19.511719 L 44.148438 10.441406 C 44.148438 10.375 44.203125 10.320312 44.269531 10.320312 C 44.332031 10.320312 44.386719 10.375 44.386719 10.441406 L 44.386719 19.511719 C 44.386719 19.578125 44.332031 19.628906 44.269531 19.628906 Z M 44.269531 19.628906 "/>
<path style=" stroke:none;fill-rule:nonzero;fill:rgb(90.196078%,90.196078%,90.196078%);fill-opacity:1;" d="M 57.644531 19.628906 C 57.578125 19.628906 57.523438 19.578125 57.523438 19.511719 L 57.523438 10.441406 C 57.523438 10.375 57.578125 10.320312 57.644531 10.320312 C 57.707031 10.320312 57.761719 10.375 57.761719 10.441406 L 57.761719 19.511719 C 57.761719 19.578125 57.707031 19.628906 57.644531 19.628906 Z M 57.644531 19.628906 "/>
<path style=" stroke:none;fill-rule:nonzero;fill:rgb(24.705882%,23.921569%,33.72549%);fill-opacity:1;" d="M 106.859375 50 L 61.761719 50 C 61.699219 50 61.644531 49.945312 61.644531 49.878906 C 61.644531 49.816406 61.699219 49.761719 61.761719 49.761719 L 106.859375 49.761719 C 106.925781 49.761719 106.976562 49.816406 106.976562 49.878906 C 106.976562 49.945312 106.925781 50 106.859375 50 Z M 106.859375 50 "/>
        </symbol>
        
        
        
        <symbol id="404">
        <path style=" stroke:none;fill-rule:nonzero;fill:rgb(24.705882%,23.921569%,33.72549%);fill-opacity:1;" d="M 40.675781 181 L 40.476562 181 C 30.042969 181 20.144531 180.480469 12.597656 179.535156 L 12.292969 179.496094 C 12.085938 179.46875 11.882812 179.441406 11.679688 179.414062 C 10.496094 179.257812 9.335938 179.082031 8.234375 178.890625 C 2.769531 177.9375 0 176.800781 0 175.511719 C 0 174.441406 1.816406 173.511719 5.554688 172.664062 C 7.355469 172.253906 9.574219 171.878906 12.15625 171.546875 C 12.625 171.484375 13.109375 171.425781 13.605469 171.367188 C 20.996094 170.5 30.539062 170.023438 40.476562 170.023438 C 42.441406 170.023438 44.425781 170.042969 46.382812 170.078125 C 63.03125 170.398438 80.953125 172.234375 80.953125 175.511719 C 80.953125 177.46875 74.472656 178.730469 69.039062 179.445312 C 61.472656 180.441406 51.398438 180.992188 40.675781 181 Z M 40.476562 170.457031 C 30.558594 170.457031 21.03125 170.933594 13.65625 171.800781 C 13.164062 171.855469 12.679688 171.914062 12.210938 171.976562 C 9.644531 172.308594 7.4375 172.679688 5.652344 173.085938 C 0.941406 174.152344 0.433594 175.136719 0.433594 175.511719 C 0.433594 175.984375 1.199219 177.222656 8.308594 178.464844 C 9.40625 178.652344 10.558594 178.828125 11.738281 178.984375 C 11.941406 179.011719 12.144531 179.039062 12.347656 179.066406 L 12.652344 179.105469 C 20.179688 180.046875 30.0625 180.566406 40.476562 180.566406 L 40.675781 180.566406 C 64.511719 180.550781 80.519531 177.9375 80.519531 175.511719 C 80.519531 173.375 67.746094 170.921875 46.375 170.511719 C 44.421875 170.476562 42.4375 170.457031 40.476562 170.457031 Z M 40.476562 170.457031 "/>
<path style=" stroke:none;fill-rule:nonzero;fill:rgb(24.705882%,23.921569%,33.72549%);fill-opacity:1;" d="M 67.855469 175.511719 C 67.855469 178.414062 57.308594 180.769531 44.273438 180.78125 L 44.15625 180.78125 C 37.792969 180.78125 32.015625 180.226562 27.757812 179.320312 C 27.578125 179.277344 27.398438 179.238281 27.222656 179.199219 C 26.496094 179.035156 25.820312 178.859375 25.199219 178.679688 C 22.21875 177.792969 20.453125 176.699219 20.453125 175.511719 C 20.453125 174.550781 21.609375 173.652344 23.625 172.875 C 24.886719 172.40625 26.183594 172.035156 27.5 171.761719 C 27.777344 171.699219 28.0625 171.640625 28.351562 171.582031 C 32.542969 170.746094 38.082031 170.238281 44.15625 170.238281 C 45.335938 170.238281 46.496094 170.257812 47.628906 170.296875 C 59.074219 170.667969 67.855469 172.863281 67.855469 175.511719 Z M 67.855469 175.511719 "/>
<path style=" stroke:none;fill-rule:nonzero;fill:rgb(62.745098%,38.039216%,41.568627%);fill-opacity:1;" d="M 32.234375 127.742188 L 33.246094 135.652344 C 33.246094 135.652344 33.652344 138.289062 34.054688 139.710938 C 34.054688 139.710938 33.652344 147.214844 36.890625 152.492188 L 38.910156 156.34375 L 39.316406 162.023438 L 44.375 162.632812 L 43.363281 154.113281 C 43.363281 154.113281 42.957031 150.054688 43.363281 148.433594 C 43.765625 146.8125 41.339844 139.304688 41.339844 139.304688 C 41.339844 139.304688 44.578125 128.757812 42.148438 126.121094 C 39.722656 123.484375 32.234375 127.742188 32.234375 127.742188 Z M 32.234375 127.742188 "/>
<path style=" stroke:none;fill-rule:nonzero;fill:rgb(18.431373%,18.039216%,25.490196%);fill-opacity:1;" d="M 41.136719 160.402344 C 41.136719 160.402344 38.910156 160.402344 38.710938 161.011719 C 38.507812 161.617188 35.269531 167.097656 35.269531 167.097656 C 35.269531 167.097656 32.4375 171.558594 36.484375 171.761719 C 40.53125 171.964844 41.746094 170.140625 41.746094 170.140625 C 41.746094 170.140625 45.386719 164.257812 45.589844 163.242188 C 45.789062 162.226562 44.066406 160.054688 44.066406 160.054688 C 44.066406 160.054688 41.746094 161.617188 41.136719 160.402344 Z M 41.136719 160.402344 "/>
<path style=" stroke:none;fill-rule:nonzero;fill:rgb(62.745098%,38.039216%,41.568627%);fill-opacity:1;" d="M 50.847656 54.105469 C 50.847656 57.914062 47.769531 61.003906 43.96875 61.003906 C 40.171875 61.003906 37.089844 57.914062 37.089844 54.105469 C 37.089844 50.296875 40.171875 47.210938 43.96875 47.210938 C 47.769531 47.210938 50.847656 50.296875 50.847656 54.105469 Z M 50.847656 54.105469 "/>
<path style=" stroke:none;fill-rule:nonzero;fill:rgb(62.745098%,38.039216%,41.568627%);fill-opacity:1;" d="M 38.40625 56.238281 C 38.40625 56.238281 38.40625 63.742188 35.777344 64.351562 C 33.144531 64.960938 39.417969 71.855469 42.855469 71.046875 C 46.296875 70.234375 47.710938 64.757812 47.710938 64.757812 C 47.710938 64.757812 44.679688 60.902344 45.890625 58.875 C 47.105469 56.84375 38.40625 56.238281 38.40625 56.238281 Z M 38.40625 56.238281 "/>
<path style=" stroke:none;fill-rule:nonzero;fill:rgb(81.568627%,80.392157%,88.235294%);fill-opacity:1;" d="M 41.339844 66.683594 C 39.378906 66.621094 37.570312 65.613281 36.484375 63.976562 C 36.484375 63.976562 33.652344 64.453125 33.246094 64.65625 C 32.84375 64.859375 25.761719 67.089844 24.144531 71.753906 L 30.617188 80.070312 C 30.617188 80.070312 29.199219 91.835938 30.617188 97.113281 C 31.460938 100.269531 31.246094 103.621094 30.011719 106.644531 C 30.011719 106.644531 29.402344 106.847656 30.414062 107.253906 C 31.425781 107.660156 54.691406 102.996094 55.097656 101.777344 C 55.5 100.558594 54.691406 100.558594 55.300781 99.953125 C 55.90625 99.34375 57.523438 95.691406 55.90625 94.472656 C 54.289062 93.257812 53.277344 79.871094 53.277344 79.871094 L 57.523438 69.117188 C 57.523438 69.117188 49.761719 62.894531 46.964844 63.675781 C 46.964844 63.675781 46.398438 66.683594 41.339844 66.683594 Z M 41.339844 66.683594 "/>
<path style=" stroke:none;fill-rule:nonzero;fill:rgb(62.745098%,38.039216%,41.568627%);fill-opacity:1;" d="M 43.96875 123.683594 C 43.96875 123.683594 43.566406 132.609375 44.375 136.058594 C 45.183594 139.507812 45.183594 140.929688 45.183594 140.929688 C 45.183594 140.929688 43.96875 146.8125 44.578125 152.289062 C 45.183594 157.765625 43.867188 166.59375 43.867188 166.59375 L 48.824219 168.109375 L 51.859375 152.695312 C 51.859375 152.695312 54.289062 143.160156 52.871094 138.695312 C 52.871094 138.695312 53.679688 125.105469 54.289062 123.683594 C 54.894531 122.265625 43.96875 123.683594 43.96875 123.683594 Z M 43.96875 123.683594 "/>
<path style=" stroke:none;fill-rule:nonzero;fill:rgb(18.431373%,18.039216%,25.490196%);fill-opacity:1;" d="M 38.542969 55.335938 C 38.632812 54.6875 38.824219 53.984375 39.375 53.632812 C 39.945312 53.269531 40.683594 53.417969 41.359375 53.46875 C 42.03125 53.515625 42.859375 53.347656 43.082031 52.707031 C 43.21875 52.308594 43.070312 51.828125 43.285156 51.464844 C 43.628906 50.886719 44.675781 50.953125 44.859375 50.304688 C 44.914062 50.101562 44.859375 49.871094 44.941406 49.675781 C 45.054688 49.410156 45.367188 49.304688 45.648438 49.238281 C 46.667969 49.003906 47.71875 48.910156 48.765625 48.964844 C 48.867188 48.984375 48.972656 48.960938 49.0625 48.90625 C 49.105469 48.859375 49.140625 48.800781 49.15625 48.738281 C 49.394531 48.027344 49.140625 47.222656 48.671875 46.640625 C 48.171875 46.082031 47.554688 45.640625 46.863281 45.347656 C 45.335938 44.601562 43.679688 44.160156 41.984375 44.046875 C 40.695312 43.964844 39.339844 44.105469 38.238281 44.789062 C 37.914062 44.996094 37.613281 45.238281 37.339844 45.507812 C 36.140625 46.710938 35.363281 48.265625 35.113281 49.945312 C 34.871094 51.621094 35.058594 53.332031 35.65625 54.914062 C 36.007812 55.867188 36.558594 56.851562 37.410156 57.4375 C 37.867188 57.753906 38.261719 58.042969 38.449219 57.511719 C 38.652344 56.941406 38.453125 55.964844 38.542969 55.335938 Z M 38.542969 55.335938 "/>
<path style=" stroke:none;fill-rule:nonzero;fill:rgb(18.431373%,18.039216%,25.490196%);fill-opacity:1;" d="M 31.023438 105.429688 C 31.023438 105.429688 27.988281 109.484375 28.59375 112.324219 C 29.199219 115.164062 31.425781 119.832031 31.425781 119.832031 C 31.425781 119.832031 30.210938 128.960938 32.234375 128.960938 C 34.257812 128.960938 42.957031 128.554688 43.160156 127.539062 C 43.363281 126.527344 42.554688 116.382812 42.554688 116.382812 C 42.554688 116.382812 43.566406 125.308594 44.171875 125.308594 C 44.777344 125.308594 55.300781 126.324219 55.703125 125.714844 C 56.109375 125.105469 56.917969 109.484375 56.917969 109.484375 C 56.917969 109.484375 58.019531 102.121094 54.535156 101.136719 C 51.050781 100.15625 31.023438 105.429688 31.023438 105.429688 Z M 31.023438 105.429688 "/>
<path style=" stroke:none;fill-rule:nonzero;fill:rgb(18.431373%,18.039216%,25.490196%);fill-opacity:1;" d="M 47.207031 166.488281 C 47.207031 166.488281 43.566406 164.457031 43.363281 166.082031 C 43.160156 167.703125 40.933594 173.585938 40.933594 173.585938 C 40.933594 173.585938 38.710938 178.253906 43.566406 178.457031 C 48.421875 178.660156 49.632812 176.425781 49.632812 175.414062 C 49.632812 174.398438 49.089844 167.441406 49.089844 167.441406 Z M 47.207031 166.488281 "/>
<path style=" stroke:none;fill-rule:nonzero;fill:rgb(62.745098%,38.039216%,41.568627%);fill-opacity:1;" d="M 59.75 80.070312 L 60.761719 88.996094 C 60.761719 88.996094 61.976562 93.867188 61.167969 95.894531 C 60.355469 97.921875 57.324219 107.253906 57.324219 107.253906 C 57.324219 107.253906 56.511719 102.183594 54.492188 101.574219 L 55.703125 90.011719 C 55.703125 90.011719 52.808594 82.796875 53.445312 81.839844 C 54.085938 80.882812 59.75 80.070312 59.75 80.070312 Z M 59.75 80.070312 "/>
<path style=" stroke:none;fill-rule:nonzero;fill:rgb(62.745098%,38.039216%,41.568627%);fill-opacity:1;" d="M 23.738281 80.679688 L 24.144531 88.792969 C 24.144531 88.792969 22.726562 95.894531 25.558594 103.398438 L 25.964844 106.644531 L 28.59375 111.71875 C 28.59375 111.71875 29.199219 106.847656 30.414062 106.847656 C 30.414062 106.847656 29.199219 103.601562 29.605469 101.777344 C 30.011719 99.953125 29.402344 90.214844 29.402344 90.214844 L 30.414062 82.335938 Z M 23.738281 80.679688 "/>
<path style=" stroke:none;fill-rule:nonzero;fill:rgb(81.568627%,80.392157%,88.235294%);fill-opacity:1;" d="M 55.300781 68.914062 L 57.523438 68.914062 C 57.523438 68.914062 62.785156 81.085938 60.761719 81.289062 C 58.738281 81.492188 52.265625 83.113281 52.0625 82.304688 C 51.859375 81.492188 55.300781 68.914062 55.300781 68.914062 Z M 55.300781 68.914062 "/>
<path style=" stroke:none;fill-rule:nonzero;fill:rgb(81.568627%,80.392157%,88.235294%);fill-opacity:1;" d="M 25.964844 69.929688 L 24.144531 71.753906 C 24.144531 71.753906 21.714844 80.882812 23.535156 81.898438 C 25.355469 82.910156 32.234375 84.128906 32.640625 83.316406 C 33.042969 82.507812 25.964844 69.929688 25.964844 69.929688 Z M 25.964844 69.929688 "/>
<path style=" stroke:none;fill-rule:nonzero;fill:rgb(24.705882%,23.921569%,33.72549%);fill-opacity:1;" d="M 20.9375 170.902344 L 20.707031 170.8125 C 20.65625 170.792969 15.574219 168.84375 13.195312 164.417969 C 10.816406 159.992188 11.980469 154.664062 11.992188 154.609375 L 12.046875 154.367188 L 12.277344 154.453125 C 12.332031 154.472656 17.410156 156.425781 19.789062 160.851562 C 22.171875 165.277344 21.003906 170.605469 20.992188 170.65625 Z M 13.574219 164.210938 C 15.589844 167.953125 19.601562 169.871094 20.621094 170.308594 C 20.8125 169.214844 21.421875 164.792969 19.410156 161.058594 C 17.398438 157.320312 13.382812 155.398438 12.367188 154.957031 C 12.171875 156.054688 11.566406 160.472656 13.574219 164.210938 Z M 13.574219 164.210938 "/>
<path style=" stroke:none;fill-rule:nonzero;fill:rgb(91.372549%,43.137255%,31.372549%);fill-opacity:1;" d="M 15.011719 162.863281 C 19.289062 165.445312 20.9375 170.570312 20.9375 170.570312 C 20.9375 170.570312 15.652344 171.511719 11.375 168.929688 C 7.097656 166.351562 5.449219 161.226562 5.449219 161.226562 C 5.449219 161.226562 10.738281 160.285156 15.011719 162.863281 Z M 15.011719 162.863281 "/>
<path style=" stroke:none;fill-rule:nonzero;fill:rgb(24.705882%,23.921569%,33.72549%);fill-opacity:1;" d="M 177.8125 7.015625 L 177.8125 163.136719 C 177.816406 165.1875 176.921875 167.140625 175.367188 168.472656 C 174.109375 169.558594 172.507812 170.152344 170.851562 170.148438 L 107.9375 170.148438 C 106.550781 170.152344 105.195312 169.734375 104.046875 168.957031 C 102.125 167.648438 100.972656 165.46875 100.972656 163.136719 L 100.972656 7.015625 C 100.964844 3.148438 104.082031 0.0078125 107.9375 0 L 117.351562 0 L 117.351562 1.214844 C 117.34375 4.398438 119.910156 6.984375 123.085938 6.996094 L 155.082031 6.996094 C 156.308594 6.996094 157.5 6.601562 158.484375 5.867188 C 158.679688 5.722656 158.871094 5.5625 159.046875 5.390625 C 160.179688 4.300781 160.820312 2.792969 160.816406 1.214844 L 160.816406 0 L 170.851562 0 C 174.707031 0.0078125 177.824219 3.148438 177.8125 7.015625 Z M 177.8125 7.015625 "/>
<path style=" stroke:none;fill-rule:nonzero;fill:rgb(91.372549%,43.137255%,31.372549%);fill-opacity:1;" d="M 249.890625 99.859375 L 140.203125 99.859375 L 140.203125 136.179688 L 149.386719 126.96875 L 249.890625 126.96875 Z M 249.890625 99.859375 "/>
<path style=" stroke:none;fill-rule:nonzero;fill:rgb(100%,100%,100%);fill-opacity:1;" d="M 157.296875 105.996094 L 232.800781 105.996094 L 232.800781 112.136719 L 157.296875 112.136719 Z M 157.296875 105.996094 "/>
<path style=" stroke:none;fill-rule:nonzero;fill:rgb(100%,100%,100%);fill-opacity:1;" d="M 157.296875 115.203125 L 232.800781 115.203125 L 232.800781 121.34375 L 157.296875 121.34375 Z M 157.296875 115.203125 "/>
<path style=" stroke:none;fill-rule:nonzero;fill:rgb(93.72549%,93.72549%,93.72549%);fill-opacity:1;" d="M 167.894531 40.035156 C 168.152344 38.769531 167.691406 37.464844 166.695312 36.648438 C 165.699219 35.832031 164.332031 35.636719 163.148438 36.144531 C 161.433594 33.957031 158.5 33.136719 155.902344 34.125 C 153.4375 31.328125 149.507812 30.351562 146.027344 31.660156 C 142.546875 32.972656 140.230469 36.304688 140.210938 40.035156 Z M 167.894531 40.035156 "/>
<path style=" stroke:none;fill-rule:nonzero;fill:rgb(93.72549%,93.72549%,93.72549%);fill-opacity:1;" d="M 128.71875 52.355469 C 128.71875 48.617188 126.414062 45.269531 122.925781 43.945312 C 119.4375 42.621094 115.5 43.597656 113.027344 46.398438 C 109.90625 45.210938 106.40625 46.648438 105.007812 49.6875 C 103.171875 49.371094 101.414062 50.570312 101.039062 52.402344 L 128.71875 52.402344 C 128.71875 52.386719 128.71875 52.371094 128.71875 52.355469 Z M 128.71875 52.355469 "/>
<path style=" stroke:none;fill-rule:nonzero;fill:rgb(93.72549%,93.72549%,93.72549%);fill-opacity:1;" d="M 163.386719 62.386719 C 163.386719 59.253906 161.453125 56.449219 158.53125 55.339844 C 155.609375 54.230469 152.308594 55.046875 150.238281 57.394531 C 147.625 56.402344 144.6875 57.605469 143.515625 60.152344 C 141.976562 59.886719 140.507812 60.894531 140.191406 62.425781 L 163.386719 62.425781 C 163.386719 62.414062 163.386719 62.402344 163.386719 62.386719 Z M 163.386719 62.386719 "/>
<path style=" stroke:none;fill-rule:nonzero;fill:rgb(93.72549%,93.72549%,93.72549%);fill-opacity:1;" d="M 146.566406 51.304688 L 145.914062 50.601562 L 144.914062 51.539062 L 145.847656 52.539062 L 146.566406 51.867188 L 146.847656 51.605469 Z M 145.851562 52.390625 L 145.0625 51.542969 L 145.90625 50.75 L 146.566406 51.457031 L 146.699219 51.597656 L 146.566406 51.722656 Z M 145.851562 52.390625 "/>
<path style=" stroke:none;fill-rule:nonzero;fill:rgb(93.72549%,93.72549%,93.72549%);fill-opacity:1;" d="M 155.070312 44.980469 L 154.070312 45.914062 L 155.003906 46.917969 L 156.003906 45.984375 Z M 154.21875 45.921875 L 155.066406 45.128906 L 155.855469 45.976562 L 155.007812 46.769531 Z M 154.21875 45.921875 "/>
<path style=" stroke:none;fill-rule:nonzero;fill:rgb(93.72549%,93.72549%,93.72549%);fill-opacity:1;" d="M 117.214844 67.269531 L 116.214844 68.207031 L 117.148438 69.210938 L 118.148438 68.273438 Z M 116.363281 68.210938 L 117.210938 67.417969 L 118 68.269531 L 117.152344 69.0625 Z M 116.363281 68.210938 "/>
<path style=" stroke:none;fill-rule:nonzero;fill:rgb(93.72549%,93.72549%,93.72549%);fill-opacity:1;" d="M 156.472656 71.445312 L 155.902344 70.832031 L 154.898438 71.765625 L 155.832031 72.769531 L 156.472656 72.171875 L 156.835938 71.835938 Z M 155.839844 72.621094 L 155.046875 71.773438 L 155.894531 70.980469 L 156.472656 71.597656 L 156.6875 71.828125 L 156.472656 72.03125 Z M 155.839844 72.621094 "/>
<path style=" stroke:none;fill-rule:nonzero;fill:rgb(93.72549%,93.72549%,93.72549%);fill-opacity:1;" d="M 111.058594 61.472656 L 111.046875 61.460938 L 110.046875 62.398438 L 110.980469 63.402344 L 111.058594 63.328125 L 111.980469 62.464844 Z M 110.984375 63.25 L 110.195312 62.402344 L 111.042969 61.609375 L 111.058594 61.628906 L 111.832031 62.460938 L 111.058594 63.183594 Z M 110.984375 63.25 "/>
<path style=" stroke:none;fill-rule:nonzero;fill:rgb(93.72549%,93.72549%,93.72549%);fill-opacity:1;" d="M 122.84375 57.445312 L 122.84375 58.816406 L 124.210938 58.816406 L 124.210938 57.445312 Z M 124.105469 58.710938 L 122.949219 58.710938 L 122.949219 57.546875 L 124.105469 57.546875 Z M 124.105469 58.710938 "/>
<path style=" stroke:none;fill-rule:nonzero;fill:rgb(93.72549%,93.72549%,93.72549%);fill-opacity:1;" d="M 147.605469 68.21875 L 147.605469 69.589844 L 148.976562 69.589844 L 148.976562 68.21875 Z M 148.871094 69.484375 L 147.710938 69.484375 L 147.710938 68.324219 L 148.871094 68.324219 Z M 148.871094 69.484375 "/>
        </symbol>
    </defs>
</svg> 